<svg width="50" height="50" viewBox="0 0 50 50" fill="none" xmlns="http://www.w3.org/2000/svg">
<circle cx="25" cy="25" r="25" fill="white"/>
<path d="M22.59 17.59C22.8223 17.3563 23.1088 17.1836 23.4239 17.0873C23.739 16.991 24.073 16.9741 24.3963 17.038C24.7195 17.1019 25.022 17.2447 25.2768 17.4536C25.5315 17.6626 25.7307 17.9313 25.8566 18.2358C25.9825 18.5403 26.0313 18.8712 25.9985 19.1991C25.9657 19.5269 25.8524 19.8416 25.6687 20.1152C25.4849 20.3887 25.2365 20.6126 24.9454 20.767C24.6542 20.9213 24.3295 21.0014 24 21H15M25.59 32.41C25.8223 32.6437 26.1088 32.8164 26.4239 32.9127C26.739 33.009 27.073 33.0259 27.3963 32.962C27.7195 32.8981 28.022 32.7553 28.2768 32.5464C28.5315 32.3374 28.7307 32.0687 28.8566 31.7642C28.9825 31.4597 29.0313 31.1288 28.9985 30.8009C28.9657 30.4731 28.8524 30.1584 28.6687 29.8848C28.4849 29.6113 28.2365 29.3874 27.9454 29.233C27.6542 29.0787 27.3295 28.9986 27 29H15M30.73 20.73C31.0208 20.4399 31.3787 20.2259 31.7719 20.107C32.1652 19.9881 32.5816 19.9679 32.9845 20.0483C33.3874 20.1286 33.7642 20.307 34.0817 20.5677C34.3993 20.8283 34.6477 21.1632 34.805 21.5427C34.9623 21.9222 35.0236 22.3346 34.9836 22.7434C34.9436 23.1523 34.8035 23.545 34.5756 23.8868C34.3477 24.2286 34.0391 24.509 33.6771 24.7031C33.3151 24.8973 32.9108 24.9993 32.5 25H15" stroke="#151619" stroke-width="2" stroke-linecap="round" stroke-linejoin="round"/>
</svg>
